<svg width="32" height="28" viewBox="0 0 32 28" fill="none" xmlns="http://www.w3.org/2000/svg">
<g clip-path="url(#clip0_67_241)">
<path d="M16 1.75C15.595 1.75 15.195 1.82656 14.815 1.97422L0.790037 7.51406C0.315037 7.70547 3.71916e-05 8.19766 3.71916e-05 8.75C3.71916e-05 9.30234 0.315037 9.79453 0.790037 9.98594L3.68504 11.1289C2.86504 12.5398 2.40004 14.2078 2.40004 15.9633V17.5C2.40004 19.0531 1.86004 20.6555 1.28504 21.9188C0.960037 22.6297 0.590037 23.3297 0.160037 23.975C3.71933e-05 24.2102 -0.0449628 24.5164 0.0450372 24.7953C0.135037 25.0742 0.345037 25.282 0.605037 25.3531L3.80504 26.2281C4.01504 26.2883 4.24004 26.2445 4.42504 26.1188C4.61004 25.993 4.74004 25.7852 4.78004 25.55C5.21004 23.2094 4.99504 21.1094 4.67504 19.6055C4.51504 18.8289 4.30004 18.0359 4.00004 17.3086V15.9633C4.00004 14.3117 4.51004 12.7531 5.39504 11.5063C6.04004 10.6586 6.87504 9.975 7.85504 9.55391L15.705 6.17969C16.115 6.00469 16.58 6.22344 16.74 6.67188C16.9 7.12031 16.7 7.62891 16.29 7.80391L8.44004 11.1781C7.82004 11.4461 7.27504 11.8563 6.83004 12.3594L14.81 15.5094C15.19 15.657 15.59 15.7336 15.995 15.7336C16.4 15.7336 16.8 15.657 17.18 15.5094L31.21 9.98594C31.685 9.8 32 9.30234 32 8.75C32 8.19766 31.685 7.70547 31.21 7.51406L17.185 1.97422C16.805 1.82656 16.405 1.75 16 1.75ZM6.40004 22.3125C6.40004 24.243 10.7 26.25 16 26.25C21.3 26.25 25.6 24.243 25.6 22.3125L24.835 14.3609L17.725 17.1719C17.17 17.3906 16.585 17.5 16 17.5C15.415 17.5 14.825 17.3906 14.275 17.1719L7.16504 14.3609L6.40004 22.3125Z" fill="#887569" fill-opacity="0.8"/>
</g>
<defs>
<clipPath id="clip0_67_241">
<rect width="32" height="28" fill="white"/>
</clipPath>
</defs>
</svg>
