<svg width="50" height="56" viewBox="0 0 50 56" fill="none" xmlns="http://www.w3.org/2000/svg">
<path d="M44.6429 3.5H5.35714C2.39955 3.5 0 5.85156 0 8.75V47.25C0 50.1484 2.39955 52.5 5.35714 52.5H44.6429C47.6004 52.5 50 50.1484 50 47.25V8.75C50 5.85156 47.6004 3.5 44.6429 3.5ZM27.2098 41.7156C27.2098 46.4844 24.3527 48.6609 20.1897 48.6609C16.4286 48.6609 14.2522 46.7578 13.1362 44.45L16.9643 42.1859C17.7009 43.4656 18.3705 44.5484 19.9888 44.5484C21.529 44.5484 22.5112 43.9578 22.5112 41.65V25.9984H27.2098V41.7156ZM38.3259 48.6609C33.9621 48.6609 31.1384 46.6266 29.7656 43.9578L33.5937 41.7922C34.5982 43.4 35.9152 44.5922 38.2254 44.5922C40.1674 44.5922 41.4174 43.6406 41.4174 42.3172C41.4174 40.7422 40.1451 40.1844 37.9911 39.2547L36.8192 38.7625C33.4263 37.3516 31.183 35.5687 31.183 31.8172C31.183 28.3609 33.8728 25.7359 38.058 25.7359C41.0491 25.7359 43.192 26.7531 44.7321 29.4219L41.0714 31.7188C40.2679 30.3078 39.3973 29.75 38.0469 29.75C36.6741 29.75 35.8036 30.6031 35.8036 31.7188C35.8036 33.0969 36.6741 33.6547 38.6942 34.5188L39.8661 35.0109C43.8616 36.6844 46.1049 38.4016 46.1049 42.2516C46.1049 46.3859 42.779 48.6609 38.3259 48.6609Z" fill="#BAAFA9"/>
</svg>
